PathFileType	4	(X/Y/Z)	C:\Users\WrightLab\Desktop\Jo\P1_boxCal20.trc
DataRate	CameraRate	NumFrames	NumMarkers	Units	OrigDataRate	OrigDataStartFrame	OrigNumFrames
100.00	100.00	       22	19	mm	100.00	820	       937
Frame#	Time	Headset_Front			Headset_Back			Headset_Left			Headset_Right			Left_Shoulder			Right_Shoulder			Sternum			C7			Left Elbow			Right Elbow			Left Wrist			Right Wrist			Left ASIS			Right ASIS			S2			Left Knee			Right Knee			Left Ankle			Right Ankle			
		X1	Y1	Z1	X2	Y2	Z2	X3	Y3	Z3	X4	Y4	Z4	X5	Y5	Z5	X6	Y6	Z6	X7	Y7	Z7	X8	Y8	Z8	X9	Y9	Z9	X10	Y10	Z10	X11	Y11	Z11	X12	Y12	Z12	X13	Y13	Z13	X14	Y14	Z14	X15	Y15	Z15	X16	Y16	Z16	X17	Y17	Z17	X18	Y18	Z18	X19	Y19	Z19	

820	8.190	-662.80865	1152.43994	-976.42542	-730.12024	1487.49219	-815.60455	-771.54523	1423.24524	-965.46002	-595.92096	1363.66223	-1063.36096	-889.83459	1250.21216	-885.71637	-522.95135	1253.19885	-817.74780	-593.26147	1369.57642	-1083.47046	-739.83807	1253.38049	-743.04645	-997.99835	948.21954	-854.27911	-433.48468	992.59650	-738.02588	-1105.79114	795.26306	-941.49670	-328.75702	789.60559	-857.16333	-755.18823	879.22864	-1023.00330	-562.44122	875.71979	-968.86346	-732.48883	873.16650	-691.22107				-545.60065	418.42865	-833.65985	-919.35895	84.85860	-1027.05688	-868.93481	37.44834	-969.86127	
821	8.200	-660.64471	1151.15027	-985.01379	-729.89404	1486.01257	-823.84857	-770.22638	1422.42334	-974.35333	-591.67755	1368.82275	-1088.93408	-888.76880	1248.86023	-895.90906	-522.37469	1252.19482	-824.29718				-739.19788	1252.28662	-753.71442	-997.18817	947.88007	-862.91791	-433.27902	991.35291	-745.12946	-1103.70300	792.71082	-948.00647	-328.41617	790.02960	-867.11749	-752.31421	877.71942	-1031.99146	-560.05920	874.28857	-975.65784	-734.91577	872.04041	-699.70508				-545.86688	417.58734	-838.16467	-915.44763	83.76402	-1057.88904	-867.48694	33.00570	-1000.52307	
822	8.210	-658.67719	1149.06445	-992.40393	-729.46173	1484.29602	-831.81647	-768.96460	1421.32861	-982.80121	-590.10687	1367.41162	-1092.96191	-887.64307	1247.19861	-906.01611	-521.34863	1251.26514	-833.11578				-739.95062	1250.56848	-761.95844	-996.18427	945.84210	-871.82202	-433.50287	989.75104	-751.25446	-1103.47717	791.69879	-955.27740	-328.55365	790.61371	-877.51532	-749.59222	876.41345	-1042.02209	-558.04303	872.26691	-982.45374	-736.93909	869.92969	-713.08777				-546.26880	416.89471	-843.16956	-912.29004	82.83345	-1089.28906				
823	8.220	-656.64124	1147.36584	-1001.59790	-729.62561	1482.66541	-840.34723	-767.57867	1419.92993	-991.40729	-589.94623	1362.23730	-1085.63464	-886.12842	1245.32361	-917.37952	-521.21906	1249.48254	-839.41986	-549.21503	1399.24231	-943.94812	-739.93030	1248.94116	-772.14276	-994.01740	943.98077	-881.57440	-433.07278	987.92407	-757.85590	-1101.17346	788.97247	-961.26105	-327.63376	790.41681	-887.81354	-746.56152	874.49072	-1051.33276	-556.11627	870.94672	-990.64612	-738.69849	868.48511	-722.20856				-547.11243	414.85626	-846.98376	-907.14056	83.11279	-1121.10071	-867.08350	22.53660	-1077.14001	
824	8.230	-654.79492	1146.16748	-1010.28516	-730.29541	1481.30176	-848.14880	-765.99982	1418.92651	-1000.78339	-586.14655	1363.05920	-1092.85938	-885.30719	1243.73669	-928.18518	-521.21228	1248.06299	-845.79840				-740.41394	1247.39832	-780.30334	-993.86487	943.08734	-890.83197	-433.70840	985.76660	-763.62006	-1100.49133	786.77771	-969.16321	-327.72174	790.14679	-896.61542	-744.33014	873.07953	-1061.70447	-554.35461	868.73816	-997.36841	-739.41699	866.90466	-733.49274				-546.90588	414.25729	-852.35736							
825	8.240	-652.52142	1143.60132	-1018.46130	-728.90558	1479.14856	-855.91486	-764.66846	1417.36304	-1009.24060	-583.98450	1361.92688	-1099.73633	-884.25745	1242.11011	-939.34399	-520.76971	1246.37866	-852.40588				-741.00714	1245.83081	-790.75616	-991.79089	941.16602	-901.07129	-433.47433	984.38239	-771.43884	-1098.69580	784.99695	-976.97241	-328.20630	789.89532	-904.74042	-741.50818	870.65240	-1071.47998	-552.47278	866.92310	-1004.36334	-741.49646	863.56299	-745.21606	-852.17352	452.26889	-1095.35339	-546.78815	413.49286	-858.03174	-856.78247	24.93342	-1125.37842				
826	8.250	-650.50623	1142.28040	-1027.33350	-730.10620	1477.26392	-865.11255	-762.98077	1416.14355	-1017.80341	-582.12610	1361.10547	-1107.34473	-882.72162	1240.18567	-951.20422	-521.11255	1244.69482	-859.93036				-741.98145	1244.13208	-800.48547	-989.64276	938.75696	-910.90540	-434.01666	982.19745	-777.58667	-1097.33911	782.40045	-983.78552	-327.63626	790.08643	-913.38055	-739.05682	868.86450	-1080.55200	-550.80884	864.48767	-1011.35712	-742.41608	862.98535	-753.97406				-546.23572	412.08865	-862.84546	-851.55048	22.48017	-1155.75598	-699.20978	34.42026	-713.91632	
827	8.260	-648.56610	1141.19727	-1035.93665	-728.43115	1474.68823	-872.47864	-761.29883	1414.82886	-1026.83435	-579.66931	1359.90601	-1114.60181	-881.87708	1238.39502	-962.64886	-520.74817	1242.97119	-866.04480				-742.64624	1242.06604	-809.59906	-989.20111	937.98596	-921.12665	-435.03122	980.60510	-783.56165	-1094.96252	779.75555	-991.70166	-327.87039	789.16260	-920.89502	-736.53308	866.97766	-1090.53381	-548.94092	863.05420	-1020.15619	-744.17090	861.85797	-761.77191				-546.52594	411.40152	-867.96722				-699.26086	34.79885	-714.26941	
828	8.270	-645.33795	1138.87134	-1043.76855	-728.55872	1473.06592	-881.00507	-759.68457	1413.58105	-1035.55664	-577.69501	1359.09253	-1122.15393	-880.70984	1236.47522	-974.49304	-520.87073	1241.13159	-871.10486				-744.23798	1240.46826	-818.95679	-987.57892	936.95929	-931.79810	-436.04117	978.43634	-789.21747	-1093.13330	777.78857	-1000.41833	-328.65857	788.21747	-928.25055	-734.04504	865.15240	-1100.22241	-547.12970	861.22833	-1027.82996	-747.01111	859.22491	-775.38879				-547.03735	410.57629	-872.30823				-700.40521	38.23175	-710.98169	
829	8.280	-642.73755	1137.67981	-1052.01746	-729.45953	1471.42151	-889.28369	-757.84320	1412.44971	-1044.38293	-574.92419	1357.10083	-1126.19507	-878.78290	1235.26648	-986.80426	-520.65088	1239.39832	-878.58008	-538.25140	1393.75549	-983.33331	-744.76483	1238.32910	-828.97626	-985.33600	934.50580	-943.22614	-437.84232	976.46625	-794.77386	-1090.11194	775.32056	-1010.14972	-329.33163	786.88263	-935.07599	-731.63129	864.12531	-1111.79541	-545.39978	859.05780	-1034.45361	-748.31445	856.98499	-784.19824				-546.89813	409.77661	-877.92401				-700.48730	38.26241	-711.34296	
830	8.290	-640.60333	1136.48718	-1060.78748	-728.43359	1469.47791	-898.02240	-755.91132	1411.45581	-1053.75391	-572.95734	1357.54541	-1136.34534	-877.46088	1234.02441	-998.72467	-521.59723	1237.68030	-884.57355				-746.44940	1236.67334	-838.61407	-985.03546	934.65424	-954.40887	-439.70401	974.86884	-799.73212	-1090.04260	775.28632	-1020.39569	-329.97604	785.18445	-940.10071	-729.02118	862.18396	-1120.67053	-543.28497	858.80310	-1044.48108	-751.04858	853.59528	-797.14722				-546.99274	408.53000	-883.54236				-700.44348	39.76222	-712.05701	
831	8.300	-638.11505	1136.01294	-1068.46948	-729.47815	1467.82092	-906.08862	-753.94122	1410.37976	-1062.59839	-570.25946	1355.49194	-1140.16199	-876.74829	1232.73950	-1010.17255	-522.37726	1235.82556	-889.47119				-747.22827	1235.43286	-848.93652	-982.71375	932.25543	-966.29205	-444.13843	969.48322	-807.52045	-1087.58289	773.08636	-1029.31555	-330.04434	783.93573	-946.26880	-726.48798	861.04376	-1131.14502	-541.11505	856.86560	-1052.62488	-753.40283	851.61530	-808.62756				-547.77533	407.37524	-889.84576				-700.71814	42.11324	-712.72601	
832	8.310	-635.31934	1134.02454	-1076.26526	-729.38562	1466.67859	-914.51715	-751.85028	1409.20325	-1071.40125	-567.56866	1356.57385	-1151.19373	-874.97760	1231.94263	-1022.60541	-523.07843	1234.10242	-895.03662				-749.56476	1233.12952	-858.04907	-980.86761	931.07001	-977.67084	-446.81311	967.85242	-813.38782	-1084.83850	771.01215	-1040.29919	-331.88913	782.54822	-951.08563	-723.74036	860.60040	-1141.82861	-540.27417	854.96069	-1059.33264	-755.83051	850.69415	-816.76495				-548.09497	407.44241	-895.27173				-700.42432	43.80965	-716.40521	
833	8.320	-632.98761	1133.27625	-1085.18164	-729.42279	1464.89880	-923.30463	-749.80756	1408.39185	-1080.79712	-562.32745	1354.80725	-1156.61523	-873.62128	1230.68762	-1034.81860	-524.11279	1232.14612	-900.52332	-537.35223	1385.82520	-1010.04492	-750.49396	1231.59705	-867.77325	-979.22919	930.37933	-989.90277	-450.36365	965.27777	-817.30951	-1081.18335	768.06384	-1051.31018	-333.77222	780.86560	-949.89288	-721.05463	860.10583	-1152.55615	-538.20166	854.08972	-1068.27649	-757.40515	848.62811	-828.05896				-548.81738	406.38721	-901.18909							
834	8.330	-631.09155	1133.06616	-1093.88269	-729.25885	1463.28052	-931.85376	-747.49530	1407.84985	-1090.10425	-558.49292	1356.39124	-1164.64075	-873.34393	1230.44800	-1046.85706	-525.45953	1230.58582	-907.39032	-536.91504	1386.03516	-1018.10266	-752.16675	1229.84973	-878.16357	-978.63928	930.38892	-1002.72174	-453.69818	963.14606	-823.38409	-1078.78516	766.53638	-1065.57898	-333.32065	778.64209	-957.92072	-718.45264	859.48560	-1161.98389	-537.35455	853.44318	-1076.09753	-759.89697	847.77832	-838.19580				-550.43805	404.90512	-906.86609				-701.46033	47.57549	-719.09784	
835	8.340	-628.50513	1132.25134	-1101.80969	-729.14587	1461.72253	-940.41809	-745.06207	1407.58435	-1099.55505	-555.05170	1355.70398	-1170.78174	-872.11279	1230.16211	-1059.43469	-526.69818	1228.75659	-912.54053				-754.49884	1228.75073	-887.68890	-976.56732	929.06299	-1015.47198	-457.03827	961.64075	-827.84491	-1076.84473	766.35144	-1076.01392	-334.96832	776.65735	-960.88275	-715.84967	859.47491	-1171.93250	-535.61084	852.02362	-1084.40662	-762.12628	846.71594	-851.57458				-550.84137	403.78229	-914.76563							
836	8.350	-626.85571	1132.38428	-1110.41675	-729.80554	1460.83411	-949.73468	-742.56573	1407.43140	-1108.81116				-870.83496	1230.47815	-1072.39404	-527.96313	1226.97766	-918.28937	-535.50195	1382.91650	-1028.66138	-756.23407	1227.95007	-898.53284	-975.40570	929.04016	-1028.51563	-462.14917	958.87439	-833.02582	-1073.77405	762.33740	-1098.39124	-336.79449	773.95813	-963.20001	-713.24164	859.13647	-1181.26721	-534.38055	851.57831	-1092.98657	-762.48077	846.40100	-863.01526				-550.01532	403.12656	-922.55908				-702.00989	53.74820	-725.39685	
837	8.360	-624.75610	1131.40906	-1118.36670	-730.45276	1460.52869	-958.21173	-740.16681	1407.13391	-1118.13049				-869.99481	1230.07922	-1083.98376	-529.72894	1225.65881	-925.49963	-533.89539	1381.44983	-1034.82397	-758.28528	1226.81995	-908.62994	-973.40210	926.68353	-1042.78186	-465.37296	957.60126	-836.07983	-1070.60107	763.76648	-1102.24280	-338.98996	771.16760	-961.79266	-710.67023	860.07855	-1193.86792	-533.18036	850.18781	-1100.20618	-765.11310	845.10474	-871.44995				-552.06226	401.90543	-930.66138							
838	8.370	-623.69031	1131.89441	-1127.00476	-731.25745	1460.11707	-967.35352	-737.70795	1407.25012	-1127.52527				-868.45117	1230.72534	-1096.69141	-531.04578	1224.24414	-930.84576	-528.52423	1382.45386	-1034.90625	-760.06091	1225.99329	-918.96106	-972.96313	927.77325	-1056.37866	-470.11328	954.90942	-842.09753	-1067.40979	762.85651	-1116.86108	-339.49991	769.27368	-966.53009	-708.17401	860.05731	-1203.34924	-532.42151	851.08643	-1108.79370	-766.80530	844.00464	-884.79230				-553.13806	400.60068	-939.49292							
839	8.380	-620.92456	1132.52417	-1135.83374	-731.51245	1459.74866	-976.31305	-734.98132	1407.85205	-1136.81970				-866.71185	1230.91187	-1109.04089	-532.90686	1223.46533	-937.32867	-530.79736	1380.67212	-1042.74841	-761.26483	1224.90161	-929.22406	-971.63605	927.50800	-1069.26575	-474.34036	954.33319	-847.22552	-1063.14832	759.83704	-1139.51807	-345.65848	764.69812	-972.95496				-531.21118	850.25543	-1116.89221	-769.34503	844.28412	-896.33954				-552.29779	400.00452	-947.35175							
840	8.390	-619.50134	1132.52490	-1143.25269	-730.72833	1460.02319	-985.71722	-732.26306	1408.31091	-1145.98901				-865.93860	1231.79358	-1121.55994	-534.79816	1222.52026	-943.73053	-531.19922	1378.68079	-1049.93433	-763.87103	1224.36072	-939.88104	-970.02960	927.19727	-1084.53833	-480.11145	952.33575	-853.90430	-1059.14441	761.27283	-1149.62708	-348.47299	761.21753	-973.12921				-529.61353	850.17316	-1126.15466	-772.17969	843.73187	-909.79755				-551.85144	398.94568	-955.84393							
841	8.400				-730.44922	1460.97754	-994.59839	-729.27277	1409.72375	-1154.94873				-864.30145	1233.12756	-1134.05078	-536.40381	1222.35352	-949.61365	-530.50342	1379.13940	-1055.42725	-765.38409	1224.68018	-951.24731	-969.17902	926.23700	-1101.74548	-485.44907	950.95557	-858.97083	-1055.41479	759.36823	-1168.02820	-350.92224	759.65405	-972.36975				-528.41205	851.26666	-1134.96875	-773.92389	843.57300	-922.88574				-551.66632	397.79984	-965.57416							
